<?xml version="1.0" encoding="UTF-8" standalone="no"?>
<!-- Created with Inkscape (http://www.inkscape.org/) -->

<svg
   xmlns:dc="http://purl.org/dc/elements/1.1/"
   xmlns:cc="http://creativecommons.org/ns#"
   xmlns:rdf="http://www.w3.org/1999/02/22-rdf-syntax-ns#"
   xmlns:svg="http://www.w3.org/2000/svg"
   xmlns="http://www.w3.org/2000/svg"
   xmlns:sodipodi="http://sodipodi.sourceforge.net/DTD/sodipodi-0.dtd"
   xmlns:inkscape="http://www.inkscape.org/namespaces/inkscape"
   version="1.1"
   id="svg29"
   xml:space="preserve"
   width="756.58105"
   height="333.28131"
   viewBox="0 0 756.58104 333.28131"
   sodipodi:docname="logo.svg"
   inkscape:version="0.92.4 (5da689c313, 2019-01-14)"><metadata
     id="metadata35"><rdf:RDF><cc:Work
         rdf:about=""><dc:format>image/svg+xml</dc:format><dc:type
           rdf:resource="http://purl.org/dc/dcmitype/StillImage" /><dc:title></dc:title></cc:Work></rdf:RDF></metadata><defs
     id="defs33"><clipPath
       clipPathUnits="userSpaceOnUse"
       id="clipPath49"><path
         d="M 0,595.28 H 841.89 V 0 H 0 Z"
         id="path47"
         inkscape:connector-curvature="0" /></clipPath><clipPath
       clipPathUnits="userSpaceOnUse"
       id="clipPath61"><path
         d="m 136.862,298.171 c 0,-69.038 55.974,-124.978 124.913,-124.978 v 0 c 68.786,0 124.537,55.409 125.075,124.007 v 0 1.955 c -0.538,68.584 -56.289,123.999 -125.075,123.999 v 0 c -68.939,0 -124.913,-55.944 -124.913,-124.983"
         id="path59"
         inkscape:connector-curvature="0" /></clipPath><radialGradient
       fx="0"
       fy="0"
       cx="0"
       cy="0"
       r="1"
       gradientUnits="userSpaceOnUse"
       gradientTransform="matrix(130.31712,0,0,130.31712,257.18311,301.95947)"
       spreadMethod="pad"
       id="radialGradient75"><stop
         style="stop-opacity:1;stop-color:#bf0c3f"
         offset="0"
         id="stop67" /><stop
         style="stop-opacity:1;stop-color:#bf0c3f"
         offset="0.5"
         id="stop69" /><stop
         style="stop-opacity:1;stop-color:#bf0c3f"
         offset="0.88384681"
         id="stop71" /><stop
         style="stop-opacity:1;stop-color:#99002c"
         offset="1"
         id="stop73" /></radialGradient><clipPath
       clipPathUnits="userSpaceOnUse"
       id="clipPath85"><path
         d="M 177.22,382.775 C 135.455,341.003 131.228,277.356 167.903,240.673 v 0 c 36.672,-36.657 100.272,-32.461 142.049,9.336 v 0 c 41.843,41.859 46.057,105.49 9.407,142.166 v 0 c -16.741,16.746 -39.099,24.979 -62.475,24.979 v 0 c -27.765,0 -56.943,-11.647 -79.664,-34.379"
         id="path83"
         inkscape:connector-curvature="0" /></clipPath><linearGradient
       x1="0"
       y1="0"
       x2="1"
       y2="0"
       gradientUnits="userSpaceOnUse"
       gradientTransform="matrix(65.94075,-181.17072,-181.17072,-65.94075,210.65576,407.00684)"
       spreadMethod="pad"
       id="linearGradient99"><stop
         style="stop-opacity:1;stop-color:#f38895"
         offset="0"
         id="stop91" /><stop
         style="stop-opacity:1;stop-color:#bf0c3f"
         offset="0.54762214"
         id="stop93" /><stop
         style="stop-opacity:1;stop-color:#bf0c3f"
         offset="0.8011"
         id="stop95" /><stop
         style="stop-opacity:1;stop-color:#bf0c3f"
         offset="1"
         id="stop97" /></linearGradient><clipPath
       clipPathUnits="userSpaceOnUse"
       id="clipPath109"><path
         d="m 262.944,403.37 -2.602,-0.858 c -58.709,0 -102.731,-49.074 -102.731,-107.509 v 0 c 0,-28.271 11.107,-54.892 31.222,-74.896 v 0 c 20.095,-20.018 46.735,-30.148 75.164,-30.148 v 0 c 28.559,0 55.378,10.77 75.457,30.788 v 0 c 20.144,20.01 31.215,46.624 31.215,74.895 v 0 6.096 l -2.537,2.186 -77.312,-0.029 v -12.381 l 1.918,-2.565 c 0,0 0.232,-0.256 0.657,-0.256 v 0 h 58.932 5.677 0.02 0.067 c -3.339,-48.915 -44.6,-87.214 -93.896,-87.214 v 0 c -25.116,0 -48.742,9.758 -66.549,27.409 v 0 c -17.741,17.668 -27.502,41.133 -27.502,66.115 v 0 c 0,24.998 9.247,48.969 26.987,66.607 v 0 c 17.852,17.61 40.306,26.906 67.196,27.494 v 0 l 5.075,0.077 h 0.567 c 0.353,0.039 0.655,0.048 0.655,0.828 v 0 10.138 c 0,0.741 -0.251,1.089 -0.251,1.098 v 0 l -2.28,2.863 z m -3.965,-52.241 h -0.535 v -0.155 l -0.772,-0.228 0.772,-1.229 0.014,-105.594 -3.088,-1.759 2.39,-1.676 c 0.19,-0.132 0.913,-0.532 1.744,-0.507 v 0 h 34.757 c 0.377,0.054 0.7,0.29 0.7,0.828 v 0 9.671 c 0,0.722 -0.11,0.955 -0.278,1.168 v 0 l -1.825,2.85 h -22.719 l 0.095,96.153 c 0.015,0.546 -0.235,0.795 -0.235,0.795 v 0 l -1.677,2.887 z m -52.293,-14.968 c 0,-9.196 7.522,-16.657 16.814,-16.657 v 0 c 9.281,0 16.799,7.461 16.799,16.657 v 0 c 0,9.215 -7.518,16.703 -16.799,16.703 v 0 c -9.292,0 -16.814,-7.488 -16.814,-16.703"
         id="path107"
         inkscape:connector-curvature="0" /></clipPath><linearGradient
       x1="0"
       y1="0"
       x2="1"
       y2="0"
       gradientUnits="userSpaceOnUse"
       gradientTransform="matrix(151.24834,-151.24834,-151.24834,-151.24834,178.44238,362.22998)"
       spreadMethod="pad"
       id="linearGradient121"><stop
         style="stop-opacity:1;stop-color:#cd425c"
         offset="0"
         id="stop115" /><stop
         style="stop-opacity:1;stop-color:#900531"
         offset="0.32993391"
         id="stop117" /><stop
         style="stop-opacity:1;stop-color:#900531"
         offset="1"
         id="stop119" /></linearGradient><clipPath
       clipPathUnits="userSpaceOnUse"
       id="clipPath131"><path
         d="M 0,595.28 H 841.89 V 0 H 0 Z"
         id="path129"
         inkscape:connector-curvature="0" /></clipPath><clipPath
       clipPathUnits="userSpaceOnUse"
       id="clipPath151"><path
         d="m 265.548,352.024 0.074,-99.713 2.7,2.187 v 99.835 z"
         id="path149"
         inkscape:connector-curvature="0" /></clipPath><linearGradient
       x1="0"
       y1="0"
       x2="1"
       y2="0"
       gradientUnits="userSpaceOnUse"
       gradientTransform="matrix(2.7744141,0,0,-2.7744141,265.54736,303.32227)"
       spreadMethod="pad"
       id="linearGradient163"><stop
         style="stop-opacity:1;stop-color:#b4bdc3"
         offset="0"
         id="stop157" /><stop
         style="stop-opacity:1;stop-color:#333940"
         offset="0.84428084"
         id="stop159" /><stop
         style="stop-opacity:1;stop-color:#333940"
         offset="1"
         id="stop161" /></linearGradient><clipPath
       clipPathUnits="userSpaceOnUse"
       id="clipPath173"><path
         d="m 290.417,252.127 v -7.465 l 2.441,-2.498 v 12.334 z"
         id="path171"
         inkscape:connector-curvature="0" /></clipPath><linearGradient
       x1="0"
       y1="0"
       x2="1"
       y2="0"
       gradientUnits="userSpaceOnUse"
       gradientTransform="matrix(2.4418945,0,0,-2.4418945,290.4165,248.33105)"
       spreadMethod="pad"
       id="linearGradient185"><stop
         style="stop-opacity:1;stop-color:#b3bbc1"
         offset="0"
         id="stop179" /><stop
         style="stop-opacity:1;stop-color:#2a3236"
         offset="0.84428084"
         id="stop181" /><stop
         style="stop-opacity:1;stop-color:#2a3236"
         offset="1"
         id="stop183" /></linearGradient><clipPath
       clipPathUnits="userSpaceOnUse"
       id="clipPath195"><path
         d="M 0,595.28 H 841.89 V 0 H 0 Z"
         id="path193"
         inkscape:connector-curvature="0" /></clipPath><clipPath
       clipPathUnits="userSpaceOnUse"
       id="clipPath207"><path
         d="m 205.597,338.078 c 0,-8.979 7.311,-16.256 16.32,-16.256 v 0 c 9.019,0 16.307,7.277 16.307,16.256 v 0 c 0,8.991 -7.288,16.304 -16.307,16.304 v 0 c -9.009,0 -16.32,-7.313 -16.32,-16.304 m 2.413,0 c 0,7.656 6.238,13.855 13.907,13.855 v 0 c 7.643,0 13.882,-6.199 13.882,-13.855 v 0 c 0,-7.631 -6.239,-13.814 -13.882,-13.814 v 0 c -7.669,0 -13.907,6.183 -13.907,13.814"
         id="path205"
         inkscape:connector-curvature="0" /></clipPath><linearGradient
       x1="0"
       y1="0"
       x2="1"
       y2="0"
       gradientUnits="userSpaceOnUse"
       gradientTransform="matrix(23.046011,-23.046011,23.046011,23.046011,210.36182,349.65918)"
       spreadMethod="pad"
       id="linearGradient217"><stop
         style="stop-opacity:1;stop-color:#abbac2"
         offset="0"
         id="stop213" /><stop
         style="stop-opacity:1;stop-color:#262a30"
         offset="1"
         id="stop215" /></linearGradient><clipPath
       clipPathUnits="userSpaceOnUse"
       id="clipPath227"><path
         d="M 0,595.28 H 841.89 V 0 H 0 Z"
         id="path225"
         inkscape:connector-curvature="0" /></clipPath><clipPath
       clipPathUnits="userSpaceOnUse"
       id="clipPath247"><path
         d="m 155.896,298.208 c 0,-28.275 11.025,-54.888 31.012,-74.903 v 0 c 19.969,-20.004 46.549,-31.046 74.815,-31.046 v 0 c 28.356,0 55.003,11.042 74.964,31.046 v 0 c 20.014,20.015 31.005,46.628 31.005,74.903 v 0 6.115 l -2.452,-2.467 v -3.648 c 0,-27.643 -10.738,-53.617 -30.266,-73.178 v 0 c -19.507,-19.558 -45.543,-30.332 -73.251,-30.332 v 0 c -27.595,0 -53.574,10.774 -73.088,30.332 v 0 c -19.536,19.577 -30.296,45.559 -30.296,73.178 v 0 c 0,57.089 46.384,103.505 103.384,103.505 v 0 l 3.951,0.05 2.419,2.345 -6.37,0.059 c -58.332,0 -105.827,-47.528 -105.827,-105.959"
         id="path245"
         inkscape:connector-curvature="0" /></clipPath><linearGradient
       x1="0"
       y1="0"
       x2="1"
       y2="0"
       gradientUnits="userSpaceOnUse"
       gradientTransform="matrix(151.02123,-151.02123,151.02123,151.02123,177.29004,363.91113)"
       spreadMethod="pad"
       id="linearGradient257"><stop
         style="stop-opacity:1;stop-color:#b4bdc3"
         offset="0"
         id="stop253" /><stop
         style="stop-opacity:1;stop-color:#3e454d"
         offset="1"
         id="stop255" /></linearGradient><clipPath
       clipPathUnits="userSpaceOnUse"
       id="clipPath267"><path
         d="m 260.363,394.132 c -25.045,-0.363 -48.559,-10.311 -66.438,-28.067 v 0 c -18.072,-18.11 -28.034,-42.206 -28.034,-67.857 v 0 c 0,-25.64 9.962,-49.713 28.034,-67.834 v 0 c 17.886,-17.843 41.496,-27.818 66.615,-28.124 v 0 h 2.472 c 49.735,0.632 91.131,39.71 94.491,89.456 v 0 l 0.087,2.649 -1.22,-1.116 -1.288,-1.339 c -3.323,-48.919 -44.315,-87.216 -93.292,-87.216 v 0 c -24.962,0 -48.432,9.756 -66.123,27.415 v 0 c -17.631,17.659 -27.324,41.128 -27.324,66.109 v 0 c 0,25 9.693,48.503 27.324,66.139 v 0 c 17.727,17.605 41.19,27.344 66.123,27.344 v 0 l 6.303,-0.061 -2.427,2.441 -2.73,0.061 z"
         id="path265"
         inkscape:connector-curvature="0" /></clipPath><linearGradient
       x1="0"
       y1="0"
       x2="1"
       y2="0"
       gradientUnits="userSpaceOnUse"
       gradientTransform="matrix(-191.71616,0,0,-191.71616,357.60498,298.25244)"
       spreadMethod="pad"
       id="linearGradient277"><stop
         style="stop-opacity:1;stop-color:#b4bdc3"
         offset="0"
         id="stop273" /><stop
         style="stop-opacity:1;stop-color:#485159"
         offset="1"
         id="stop275" /></linearGradient><clipPath
       clipPathUnits="userSpaceOnUse"
       id="clipPath287"><path
         d="M 0,595.28 H 841.89 V 0 H 0 Z"
         id="path285"
         inkscape:connector-curvature="0" /></clipPath><clipPath
       clipPathUnits="userSpaceOnUse"
       id="clipPath299"><path
         d="m 265.674,401.763 v -7.706 l 2.419,-2.427 v 12.478 z"
         id="path297"
         inkscape:connector-curvature="0" /></clipPath><linearGradient
       x1="0"
       y1="0"
       x2="1"
       y2="0"
       gradientUnits="userSpaceOnUse"
       gradientTransform="matrix(2.4189453,0,0,-2.4189453,265.67383,397.86963)"
       spreadMethod="pad"
       id="linearGradient311"><stop
         style="stop-opacity:1;stop-color:#b3bbc1"
         offset="0"
         id="stop305" /><stop
         style="stop-opacity:1;stop-color:#2a3236"
         offset="0.84428084"
         id="stop307" /><stop
         style="stop-opacity:1;stop-color:#2a3236"
         offset="1"
         id="stop309" /></linearGradient><clipPath
       clipPathUnits="userSpaceOnUse"
       id="clipPath321"><path
         d="M 260.386,402.839 C 203.427,402.155 157.154,355.488 157.154,298.208 v 0 c 0,-27.957 10.888,-54.197 30.629,-73.965 v 0 c 19.719,-19.768 46.036,-30.649 73.876,-30.649 v 0 c 28.015,0 54.308,10.881 74.035,30.649 v 0 c 19.757,19.768 30.614,46.008 30.614,73.965 v 0 4.756 l -4.134,-0.016 h -70.521 v -9.709 h 64.717 c -0.007,-0.227 -0.007,-1.229 -0.029,-1.419 v 0 c -3.363,-49.305 -44.455,-88.462 -94.618,-88.462 v 0 c -25.292,0 -49.093,9.874 -67.063,27.804 v 0 c -17.858,17.887 -27.724,41.699 -27.724,67.046 v 0 c 0,25.369 9.866,49.199 27.724,67.072 v 0 c 17.97,17.858 41.771,27.736 67.063,27.736 v 0 c 1.089,0 3.804,0 5.002,-0.028 v 0 9.796 c -0.987,0 -2.625,0.034 -3.913,0.055 v 0 z m -3.641,-49.828 V 243.478 h 34.825 v 9.763 h -24.845 v 99.77 z"
         id="path319"
         inkscape:connector-curvature="0" /></clipPath><radialGradient
       fx="0"
       fy="0"
       cx="0"
       cy="0"
       r="1"
       gradientUnits="userSpaceOnUse"
       gradientTransform="matrix(159.95953,0,0,-159.95953,219.5752,342.51172)"
       spreadMethod="pad"
       id="radialGradient335"><stop
         style="stop-opacity:1;stop-color:#ffffff"
         offset="0"
         id="stop327" /><stop
         style="stop-opacity:1;stop-color:#ffffff"
         offset="0.350006"
         id="stop329" /><stop
         style="stop-opacity:1;stop-color:#ffffff"
         offset="0.66652609"
         id="stop331" /><stop
         style="stop-opacity:1;stop-color:#c0ccd2"
         offset="1"
         id="stop333" /></radialGradient><clipPath
       clipPathUnits="userSpaceOnUse"
       id="clipPath345"><path
         d="m 206.833,338.078 c 0,-8.265 6.767,-14.94 15.02,-14.94 v 0 c 8.245,0 14.996,6.675 14.996,14.94 v 0 c 0,8.326 -6.751,14.996 -14.996,14.996 v 0 c -8.253,0 -15.02,-6.67 -15.02,-14.996"
         id="path343"
         inkscape:connector-curvature="0" /></clipPath><radialGradient
       fx="0"
       fy="0"
       cx="0"
       cy="0"
       r="1"
       gradientUnits="userSpaceOnUse"
       gradientTransform="matrix(23.357451,0,0,-23.357451,215.63916,343.61035)"
       spreadMethod="pad"
       id="radialGradient359"><stop
         style="stop-opacity:1;stop-color:#ffffff"
         offset="0"
         id="stop351" /><stop
         style="stop-opacity:1;stop-color:#ffffff"
         offset="0.350006"
         id="stop353" /><stop
         style="stop-opacity:1;stop-color:#ffffff"
         offset="0.66553083"
         id="stop355" /><stop
         style="stop-opacity:1;stop-color:#d0dadf"
         offset="1"
         id="stop357" /></radialGradient><clipPath
       clipPathUnits="userSpaceOnUse"
       id="clipPath369"><path
         d="M 0,595.28 H 841.89 V 0 H 0 Z"
         id="path367"
         inkscape:connector-curvature="0" /></clipPath></defs><sodipodi:namedview
     pagecolor="#ffffff"
     bordercolor="#666666"
     borderopacity="1"
     objecttolerance="10"
     gridtolerance="10"
     guidetolerance="10"
     inkscape:pageopacity="0"
     inkscape:pageshadow="2"
     inkscape:window-width="3440"
     inkscape:window-height="1395"
     id="namedview31"
     showgrid="false"
     fit-margin-top="0"
     fit-margin-left="0"
     fit-margin-right="0"
     fit-margin-bottom="0"
     inkscape:zoom="1.5396116"
     inkscape:cx="378.77735"
     inkscape:cy="165.92934"
     inkscape:window-x="0"
     inkscape:window-y="1"
     inkscape:window-maximized="1"
     inkscape:current-layer="g37" /><g
     id="g37"
     inkscape:groupmode="layer"
     inkscape:label="LG CI_3D_rgb_Standard"
     transform="matrix(1.3333333,0,0,-1.3333333,-182.48266,564.20532)"><g
       id="g39"
       transform="translate(480.0454,379.6504)"
       style="fill:#ffffff"><path
         d="M 0,0 H -37.335 V -161.584 H 77.334 v 31.465 H 0 Z"
         style="fill:#ffffff;fill-opacity:1;fill-rule:nonzero;stroke:none"
         id="path41"
         inkscape:connector-curvature="0" /></g><g
       id="g43"
       style="fill:#ffffff"><g
         id="g45"
         clip-path="url(#clipPath49)"
         style="fill:#ffffff"><g
           id="g51"
           transform="translate(639.5068,279.6543)"
           style="fill:#ffffff"><path
             d="m 0,0 h 30.389 v -28.252 c -5.597,-2.143 -16.518,-4.277 -26.918,-4.277 -33.607,0 -44.807,17.08 -44.807,51.736 0,33.064 10.663,52.533 44.262,52.533 18.677,0 29.332,-5.867 38.129,-17.07 L 64.268,76.004 C 50.123,96.26 25.323,102.398 2.124,102.398 c -52.258,0 -79.728,-28.527 -79.728,-82.921 0,-54.139 24.799,-83.467 79.464,-83.467 25.066,0 49.603,6.402 62.931,15.728 V 30.135 H 0 Z"
             style="fill:#ffffff;fill-opacity:1;fill-rule:nonzero;stroke:none"
             id="path53"
             inkscape:connector-curvature="0" /></g></g></g><g
       id="g55"><g
         id="g57"
         clip-path="url(#clipPath61)"><g
           id="g63"><g
             id="g65"><path
               d="m 136.862,298.171 c 0,-69.038 55.974,-124.978 124.913,-124.978 v 0 c 68.786,0 124.537,55.409 125.075,124.007 v 0 1.955 c -0.538,68.584 -56.289,123.999 -125.075,123.999 v 0 c -68.939,0 -124.913,-55.944 -124.913,-124.983"
               style="fill:url(#radialGradient75);stroke:none"
               id="path77"
               inkscape:connector-curvature="0" /></g></g></g></g><g
       id="g79"><g
         id="g81"
         clip-path="url(#clipPath85)"><g
           id="g87"><g
             id="g89"><path
               d="M 177.22,382.775 C 135.455,341.003 131.228,277.356 167.903,240.673 v 0 c 36.672,-36.657 100.272,-32.461 142.049,9.336 v 0 c 41.843,41.859 46.057,105.49 9.407,142.166 v 0 c -16.741,16.746 -39.099,24.979 -62.475,24.979 v 0 c -27.765,0 -56.943,-11.647 -79.664,-34.379"
               style="fill:url(#linearGradient99);stroke:none"
               id="path101"
               inkscape:connector-curvature="0" /></g></g></g></g><g
       id="g103"><g
         id="g105"
         clip-path="url(#clipPath109)"><g
           id="g111"><g
             id="g113"><path
               d="m 262.944,403.37 -2.602,-0.858 c -58.709,0 -102.731,-49.074 -102.731,-107.509 v 0 c 0,-28.271 11.107,-54.892 31.222,-74.896 v 0 c 20.095,-20.018 46.735,-30.148 75.164,-30.148 v 0 c 28.559,0 55.378,10.77 75.457,30.788 v 0 c 20.144,20.01 31.215,46.624 31.215,74.895 v 0 6.096 l -2.537,2.186 -77.312,-0.029 v -12.381 l 1.918,-2.565 c 0,0 0.232,-0.256 0.657,-0.256 v 0 h 58.932 5.677 0.02 0.067 c -3.339,-48.915 -44.6,-87.214 -93.896,-87.214 v 0 c -25.116,0 -48.742,9.758 -66.549,27.409 v 0 c -17.741,17.668 -27.502,41.133 -27.502,66.115 v 0 c 0,24.998 9.247,48.969 26.987,66.607 v 0 c 17.852,17.61 40.306,26.906 67.196,27.494 v 0 l 5.075,0.077 h 0.567 c 0.353,0.039 0.655,0.048 0.655,0.828 v 0 10.138 c 0,0.741 -0.251,1.089 -0.251,1.098 v 0 l -2.28,2.863 z m -3.965,-52.241 h -0.535 v -0.155 l -0.772,-0.228 0.772,-1.229 0.014,-105.594 -3.088,-1.759 2.39,-1.676 c 0.19,-0.132 0.913,-0.532 1.744,-0.507 v 0 h 34.757 c 0.377,0.054 0.7,0.29 0.7,0.828 v 0 9.671 c 0,0.722 -0.11,0.955 -0.278,1.168 v 0 l -1.825,2.85 h -22.719 l 0.095,96.153 c 0.015,0.546 -0.235,0.795 -0.235,0.795 v 0 l -1.677,2.887 z m -52.293,-14.968 c 0,-9.196 7.522,-16.657 16.814,-16.657 v 0 c 9.281,0 16.799,7.461 16.799,16.657 v 0 c 0,9.215 -7.518,16.703 -16.799,16.703 v 0 c -9.292,0 -16.814,-7.488 -16.814,-16.703"
               style="fill:url(#linearGradient121);stroke:none"
               id="path123"
               inkscape:connector-curvature="0" /></g></g></g></g><g
       id="g125"><g
         id="g127"
         clip-path="url(#clipPath131)"><g
           id="g133"
           transform="translate(257.9141,244.5908)"><path
             d="M 0,0 -2.544,-2.427 H 34.944 L 32.502,0.071 Z"
             style="fill:#626d77;fill-opacity:1;fill-rule:nonzero;stroke:none"
             id="path135"
             inkscape:connector-curvature="0" /></g><g
           id="g137"
           transform="translate(290.4165,252.127)"><path
             d="M 0,0 2.442,2.371 H -22.095 L -25,0 Z"
             style="fill:#8699a3;fill-opacity:1;fill-rule:nonzero;stroke:none"
             id="path139"
             inkscape:connector-curvature="0" /></g><g
           id="g141"
           transform="translate(268.3218,354.333)"><path
             d="m 0,0 h -12.952 l 2.429,-2.322 7.749,0.013 z"
             style="fill:#8d9aa1;fill-opacity:1;fill-rule:nonzero;stroke:none"
             id="path143"
             inkscape:connector-curvature="0" /></g></g></g><g
       id="g145"><g
         id="g147"
         clip-path="url(#clipPath151)"><g
           id="g153"><g
             id="g155"><path
               d="m 265.548,352.024 0.074,-99.713 2.7,2.187 v 99.835 z"
               style="fill:url(#linearGradient163);stroke:none"
               id="path165"
               inkscape:connector-curvature="0" /></g></g></g></g><g
       id="g167"><g
         id="g169"
         clip-path="url(#clipPath173)"><g
           id="g175"><g
             id="g177"><path
               d="m 290.417,252.127 v -7.465 l 2.441,-2.498 v 12.334 z"
               style="fill:url(#linearGradient185);stroke:none"
               id="path187"
               inkscape:connector-curvature="0" /></g></g></g></g><g
       id="g189"><g
         id="g191"
         clip-path="url(#clipPath195)"><g
           id="g197"
           transform="translate(255.3696,354.333)"><path
             d="m 0,0 v -112.169 l 2.544,2.427 -0.115,107.42 z"
             style="fill:#b4bdc3;fill-opacity:1;fill-rule:nonzero;stroke:none"
             id="path199"
             inkscape:connector-curvature="0" /></g></g></g><g
       id="g201"><g
         id="g203"
         clip-path="url(#clipPath207)"><g
           id="g209"><g
             id="g211"><path
               d="m 205.597,338.078 c 0,-8.979 7.311,-16.256 16.32,-16.256 v 0 c 9.019,0 16.307,7.277 16.307,16.256 v 0 c 0,8.991 -7.288,16.304 -16.307,16.304 v 0 c -9.009,0 -16.32,-7.313 -16.32,-16.304 m 2.413,0 c 0,7.656 6.238,13.855 13.907,13.855 v 0 c 7.643,0 13.882,-6.199 13.882,-13.855 v 0 c 0,-7.631 -6.239,-13.814 -13.882,-13.814 v 0 c -7.669,0 -13.907,6.183 -13.907,13.814"
               style="fill:url(#linearGradient217);stroke:none"
               id="path219"
               inkscape:connector-curvature="0" /></g></g></g></g><g
       id="g221"><g
         id="g223"
         clip-path="url(#clipPath227)"><g
           id="g229"
           transform="translate(357.5703,294.3545)"><path
             d="m 0,0 -64.787,0.078 -2.405,-2.533 h 64.704 l 1.288,1.34 z"
             style="fill:#505c61;fill-opacity:1;fill-rule:nonzero;stroke:none"
             id="path231"
             inkscape:connector-curvature="0" /></g><g
           id="g233"
           transform="translate(268.0928,391.6338)"><path
             d="M 0,0 Z"
             style="fill:#0b1f28;fill-opacity:1;fill-rule:nonzero;stroke:none"
             id="path235"
             inkscape:connector-curvature="0" /></g><g
           id="g237"
           transform="translate(292.7832,301.7373)"><path
             d="M 0,0 72.457,0.119 74.909,2.586 -2.405,2.567 Z"
             style="fill:#8f9ca4;fill-opacity:1;fill-rule:nonzero;stroke:none"
             id="path239"
             inkscape:connector-curvature="0" /></g></g></g><g
       id="g241"><g
         id="g243"
         clip-path="url(#clipPath247)"><g
           id="g249"><g
             id="g251"><path
               d="m 155.896,298.208 c 0,-28.275 11.025,-54.888 31.012,-74.903 v 0 c 19.969,-20.004 46.549,-31.046 74.815,-31.046 v 0 c 28.356,0 55.003,11.042 74.964,31.046 v 0 c 20.014,20.015 31.005,46.628 31.005,74.903 v 0 6.115 l -2.452,-2.467 v -3.648 c 0,-27.643 -10.738,-53.617 -30.266,-73.178 v 0 c -19.507,-19.558 -45.543,-30.332 -73.251,-30.332 v 0 c -27.595,0 -53.574,10.774 -73.088,30.332 v 0 c -19.536,19.577 -30.296,45.559 -30.296,73.178 v 0 c 0,57.089 46.384,103.505 103.384,103.505 v 0 l 3.951,0.05 2.419,2.345 -6.37,0.059 c -58.332,0 -105.827,-47.528 -105.827,-105.959"
               style="fill:url(#linearGradient257);stroke:none"
               id="path259"
               inkscape:connector-curvature="0" /></g></g></g></g><g
       id="g261"><g
         id="g263"
         clip-path="url(#clipPath267)"><g
           id="g269"><g
             id="g271"><path
               d="m 260.363,394.132 c -25.045,-0.363 -48.559,-10.311 -66.438,-28.067 v 0 c -18.072,-18.11 -28.034,-42.206 -28.034,-67.857 v 0 c 0,-25.64 9.962,-49.713 28.034,-67.834 v 0 c 17.886,-17.843 41.496,-27.818 66.615,-28.124 v 0 h 2.472 c 49.735,0.632 91.131,39.71 94.491,89.456 v 0 l 0.087,2.649 -1.22,-1.116 -1.288,-1.339 c -3.323,-48.919 -44.315,-87.216 -93.292,-87.216 v 0 c -24.962,0 -48.432,9.756 -66.123,27.415 v 0 c -17.631,17.659 -27.324,41.128 -27.324,66.109 v 0 c 0,25 9.693,48.503 27.324,66.139 v 0 c 17.727,17.605 41.19,27.344 66.123,27.344 v 0 l 6.303,-0.061 -2.427,2.441 -2.73,0.061 z"
               style="fill:url(#linearGradient277);stroke:none"
               id="path279"
               inkscape:connector-curvature="0" /></g></g></g></g><g
       id="g281"><g
         id="g283"
         clip-path="url(#clipPath287)"><g
           id="g289"
           transform="translate(292.7832,301.7373)"><path
             d="M 0,0 -2.405,2.567 V -9.838 L 0,-7.305 Z"
             style="fill:#b4bdc3;fill-opacity:1;fill-rule:nonzero;stroke:none"
             id="path291"
             inkscape:connector-curvature="0" /></g></g></g><g
       id="g293"><g
         id="g295"
         clip-path="url(#clipPath299)"><g
           id="g301"><g
             id="g303"><path
               d="m 265.674,401.763 v -7.706 l 2.419,-2.427 v 12.478 z"
               style="fill:url(#linearGradient311);stroke:none"
               id="path313"
               inkscape:connector-curvature="0" /></g></g></g></g><g
       id="g315"><g
         id="g317"
         clip-path="url(#clipPath321)"><g
           id="g323"><g
             id="g325"><path
               d="M 260.386,402.839 C 203.427,402.155 157.154,355.488 157.154,298.208 v 0 c 0,-27.957 10.888,-54.197 30.629,-73.965 v 0 c 19.719,-19.768 46.036,-30.649 73.876,-30.649 v 0 c 28.015,0 54.308,10.881 74.035,30.649 v 0 c 19.757,19.768 30.614,46.008 30.614,73.965 v 0 4.756 l -4.134,-0.016 h -70.521 v -9.709 h 64.717 c -0.007,-0.227 -0.007,-1.229 -0.029,-1.419 v 0 c -3.363,-49.305 -44.455,-88.462 -94.618,-88.462 v 0 c -25.292,0 -49.093,9.874 -67.063,27.804 v 0 c -17.858,17.887 -27.724,41.699 -27.724,67.046 v 0 c 0,25.369 9.866,49.199 27.724,67.072 v 0 c 17.97,17.858 41.771,27.736 67.063,27.736 v 0 c 1.089,0 3.804,0 5.002,-0.028 v 0 9.796 c -0.987,0 -2.625,0.034 -3.913,0.055 v 0 z m -3.641,-49.828 V 243.478 h 34.825 v 9.763 h -24.845 v 99.77 z"
               style="fill:url(#radialGradient335);stroke:none"
               id="path337"
               inkscape:connector-curvature="0" /></g></g></g></g><g
       id="g339"><g
         id="g341"
         clip-path="url(#clipPath345)"><g
           id="g347"><g
             id="g349"><path
               d="m 206.833,338.078 c 0,-8.265 6.767,-14.94 15.02,-14.94 v 0 c 8.245,0 14.996,6.675 14.996,14.94 v 0 c 0,8.326 -6.751,14.996 -14.996,14.996 v 0 c -8.253,0 -15.02,-6.67 -15.02,-14.996"
               style="fill:url(#radialGradient359);stroke:none"
               id="path361"
               inkscape:connector-curvature="0" /></g></g></g></g><g
       id="g363"><g
         id="g365"
         clip-path="url(#clipPath369)"><g
           id="g371"
           transform="translate(224.5518,350.3809)"><path
             d="m 0,0 c 3.443,0 6.576,-1.229 9.112,-3.188 -2.728,3.558 -7.008,5.88 -11.803,5.88 -8.268,0 -15.028,-6.668 -15.028,-14.995 0,-4.784 2.318,-8.994 5.833,-11.721 -1.927,2.51 -3.141,5.597 -3.141,9.025 C -15.027,-6.696 -8.269,0 0,0"
             style="fill:#ffffff;fill-opacity:1;fill-rule:nonzero;stroke:none"
             id="path373"
             inkscape:connector-curvature="0" /></g><g
           id="g375"
           transform="translate(266.7168,402.7842)"><path
             d="m 0,0 c -1.309,0.021 -3.793,0.073 -5.053,0.073 -57.568,0 -104.503,-46.956 -104.503,-104.649 0,-27.985 10.889,-54.195 30.615,-73.975 0.631,-0.631 1.288,-1.226 1.927,-1.848 -18.616,19.559 -28.884,45.014 -28.884,72.157 C -105.898,-50.684 -65.136,-2.889 0,0"
             style="fill:#ffffff;fill-opacity:1;fill-rule:nonzero;stroke:none"
             id="path377"
             inkscape:connector-curvature="0" /></g><g
           id="g379"
           transform="translate(266.7168,253.2412)"><path
             d="M 0,0 C 0,0 7.179,-2.084 24.833,-2.084 V 0 Z"
             style="fill:#ffffff;fill-opacity:1;fill-rule:nonzero;stroke:none"
             id="path381"
             inkscape:connector-curvature="0" /></g><g
           id="g383"
           transform="translate(266.7168,349.9297)"><path
             d="m 0,0 v 3.091 h -9.972 v -109.543 c 0,0 3.118,16.661 3.118,106.452 z"
             style="fill:#ffffff;fill-opacity:1;fill-rule:nonzero;stroke:none"
             id="path385"
             inkscape:connector-curvature="0" /></g><g
           id="g387"
           transform="translate(366.3003,302.9736)"><path
             d="m 0,0 -74.655,-0.017 v -9.708 h 2.713 v 7.008 C -6.893,-2.717 0,0 0,0"
             style="fill:#ffffff;fill-opacity:1;fill-rule:nonzero;stroke:none"
             id="path389"
             inkscape:connector-curvature="0" /></g><g
           id="g391"
           transform="translate(356.3774,293.2393)"><path
             d="m 0,0 c -0.022,-0.211 -0.022,-1.256 -0.058,-1.445 -3.324,-49.271 -44.442,-88.437 -94.605,-88.437 -25.292,0 -49.101,9.875 -67.062,27.815 -11.695,11.689 -19.948,25.936 -24.25,41.467 11.223,-40.837 48.568,-70.423 92.947,-70.423 47.64,0 91.534,37.312 94.257,91.023 z"
             style="fill:#ffffff;fill-opacity:1;fill-rule:nonzero;stroke:none"
             id="path393"
             inkscape:connector-curvature="0" /></g></g></g></g></svg>